<svg width="105" height="114" viewBox="0 0 105 114" fill="none" xmlns="http://www.w3.org/2000/svg">
<g clip-path="url(#clip0_3944_38488)">
<path d="M93.5037 93.5592H11.4952C7.36646 93.5592 3.64248 91.3777 1.53763 87.8228C-0.56723 84.2679 -0.56723 79.9858 1.53763 76.4309L42.6633 5.73636C44.6872 2.18143 48.3302 0 52.5399 0C56.7497 0 60.3927 2.18143 62.4166 5.73636L103.461 76.4309C105.566 79.9858 105.566 84.2679 103.461 87.8228C101.437 91.4585 97.7134 93.5592 93.5037 93.5592ZM52.5399 1.37349C48.8969 1.37349 45.6587 3.23175 43.8776 6.4635L2.83292 77.158C0.970935 80.2282 0.970935 84.0255 2.83292 87.1765C4.61396 90.2466 7.8522 92.1857 11.4952 92.1857H93.5037C97.1467 92.1857 100.385 90.3274 102.166 87.1765C103.947 84.1063 103.947 80.309 102.166 77.158L61.2022 6.38271C59.4212 3.23175 56.183 1.37349 52.5399 1.37349Z" fill="black"/>
<g opacity="0.1">
<path opacity="0.55" d="M52.782 114C48.7342 114 45.0912 111.899 42.9864 108.345L2.50833 38.5387C0.403473 34.9838 0.403473 30.7825 2.50833 27.3084C4.61319 23.7535 8.25621 21.6528 12.304 21.6528H93.341C97.3888 21.6528 101.032 23.7535 103.137 27.3084C105.242 30.8633 105.161 35.0646 103.137 38.5387L62.6587 108.345C60.5538 111.899 56.9108 114 52.782 114ZM12.304 23.0263C8.74195 23.0263 5.5037 24.8846 3.72267 27.9547C1.94164 31.0249 1.94164 34.7414 3.72267 37.8924L44.2007 107.698C45.9817 110.768 49.139 112.627 52.782 112.627C56.3441 112.627 59.5014 110.768 61.3634 107.698L101.841 37.8924C103.622 34.8222 103.622 31.1057 101.841 27.9547C100.06 24.8846 96.9031 23.0263 93.2601 23.0263H12.304Z" fill="black"/>
</g>
<g opacity="0.64">
<path opacity="0.64" d="M73.9924 98.8106H30.1951C19.8328 98.8106 10.6038 93.4782 5.50353 84.5909C0.484256 75.946 0.565212 65.6044 5.7464 57.0403L28.4951 18.5824C33.4334 10.1799 42.2576 5.25146 52.0533 5.25146C61.8489 5.25146 70.6732 10.1799 75.6115 18.5824L98.3601 57.0403C103.46 65.6044 103.541 76.0268 98.603 84.6717C93.5028 93.4782 84.3547 98.8106 73.9924 98.8106ZM52.0533 6.62496C42.7433 6.62496 34.3239 11.3918 29.6284 19.3096L6.87978 57.7674C2.02242 65.9276 2.02242 75.7036 6.71787 83.9446C11.5752 92.3471 20.3185 97.4371 30.1951 97.4371H73.9924C83.869 97.4371 92.6122 92.4279 97.4696 83.9446C102.165 75.7036 102.084 65.8468 97.2267 57.7674L74.4781 19.3096C69.7826 11.3918 61.4442 6.62496 52.0533 6.62496Z" fill="black"/>
</g>
<g opacity="0.21">
<path opacity="0.55" d="M51.9732 109.718C42.4204 109.718 33.8391 104.87 29.0627 96.7909L6.8807 59.3834C1.94238 50.9809 1.86143 40.9624 6.63783 32.4791C11.4952 23.8341 20.5623 18.7441 30.6818 18.7441H73.2647C83.3842 18.7441 92.2893 23.9149 97.3086 32.5599C102.166 40.9624 102.085 51.0616 97.0658 59.4642L74.9647 96.8717C70.1074 104.789 61.526 109.718 51.9732 109.718ZM30.196 95.983C34.7296 103.658 42.9061 108.264 51.9732 108.264C61.0403 108.264 69.2169 103.658 73.7504 95.983L95.8514 58.5755C100.547 50.6577 100.628 41.124 96.0943 33.1254C91.3988 24.8845 82.8984 20.0368 73.2647 20.0368H30.6818C21.129 20.0368 12.5476 24.8845 7.85218 33.1254C3.23768 41.124 3.31864 50.7385 8.09504 58.6563L30.196 95.983Z" fill="black"/>
</g>
<g opacity="0.4">
<path opacity="0.4" d="M69.2984 105.032H35.4588C29.549 105.032 24.044 101.881 21.1296 96.6296L3.96689 66.5743C1.13343 61.5651 1.13343 55.344 3.96689 50.254L21.0486 20.0371C24.044 14.9471 29.468 11.7153 35.4588 11.7153H69.3794C75.2892 11.7153 80.7942 14.8663 83.7086 20.1179L100.871 50.3348C103.705 55.344 103.705 61.5651 100.871 66.6551L83.7086 96.7104C80.7132 101.881 75.2082 105.032 69.2984 105.032ZM35.4588 13.1696C30.0347 13.1696 25.0155 16.0782 22.3439 20.7642L5.10028 50.9003C2.50968 55.5056 2.50968 61.1611 5.10028 65.7664L22.263 95.9832C25.0155 100.669 30.0347 103.578 35.4588 103.578H69.3794C74.8034 103.578 79.8227 100.669 82.4943 95.9832L99.6569 65.7664C102.248 61.1611 102.248 55.5056 99.6569 50.9003L82.4943 20.6834C79.8227 15.9166 74.8034 13.0888 69.3794 13.0888L35.4588 13.1696Z" fill="black"/>
</g>
<path d="M49.0579 69.6442V77.0772H32.1381L27.6855 69.5634V42.0127H35.1335V69.5634H48.977L49.0579 69.6442Z" fill="black"/>
<path d="M77.3921 42.0127V69.4826L72.9396 77.0772H70.7537H53.4291L49.0575 69.6442V69.5634H48.9766V42.0127H56.5055V69.5634H69.8632V42.0127H77.3921Z" fill="black"/>
</g>
<defs>
<clipPath id="clip0_3944_38488">
<rect width="105" height="114" fill="white"/>
</clipPath>
</defs>
</svg>
