<svg width="39" height="37" viewBox="0 0 39 37" fill="none" xmlns="http://www.w3.org/2000/svg">
<path fill-rule="evenodd" clip-rule="evenodd" d="M1.9258 0.602052C2.71403 -0.200684 3.99199 -0.200684 4.78022 0.602052L20.9268 17.0459L37.0742 33.491C37.8624 34.2937 37.8624 35.5952 37.0742 36.3979C36.286 37.2006 35.008 37.2006 34.2198 36.3979L18.6955 20.5876C16.0328 20.8012 13.6622 22.066 11.9793 23.9799C11.2356 24.8256 9.9596 24.8971 9.1292 24.1398C8.2988 23.3824 8.22846 22.0828 8.97213 21.2372C10.6463 19.3333 12.8144 17.8846 15.2714 17.1004L12.1419 13.9134C10.0287 14.868 8.12609 16.2224 6.52725 17.8833C5.74689 18.694 4.46899 18.707 3.67297 17.9123C2.87696 17.1176 2.86424 15.8161 3.64461 15.0056C5.24134 13.3467 7.08794 11.9368 9.12329 10.8391L6.15744 7.81863C5.1492 8.4263 4.18414 9.10087 3.26816 9.83639C2.39281 10.5393 1.12368 10.3864 0.433492 9.49494C-0.256691 8.60347 -0.106585 7.31095 0.768785 6.60806C1.55625 5.97573 2.37541 5.38229 3.22347 4.83064L1.9258 3.50906C1.13758 2.7063 1.13758 1.40481 1.9258 0.602052ZM19.5 4.11111C18.2254 4.11111 16.973 4.20353 15.7491 4.38183C14.6456 4.54257 13.6231 3.76187 13.4652 2.63806C13.3074 1.51425 14.074 0.472901 15.1775 0.312136C16.5903 0.106334 18.0335 0 19.5 0C26.5696 0 33.0782 2.47028 38.2313 6.60806C39.1065 7.31095 39.2567 8.60347 38.5666 9.49494C37.8763 10.3864 36.6072 10.5393 35.7318 9.83639C31.2655 6.24996 25.6308 4.11111 19.5 4.11111ZM19.5099 10.1762C19.6201 9.04648 20.6085 8.2216 21.7178 8.33378C27.0439 8.87233 31.8147 11.3271 35.3554 15.0056C36.1359 15.8161 36.1232 17.1176 35.3271 17.9123C34.5311 18.707 33.2532 18.694 32.4727 17.8833C29.5711 14.8689 25.67 12.8647 21.319 12.4248C20.2097 12.3126 19.3997 11.3059 19.5099 10.1762ZM19.5 28.7778C18.3853 28.7778 17.4816 29.6981 17.4816 30.8333C17.4816 31.9686 18.3853 32.8889 19.5 32.8889C20.6148 32.8889 21.5184 31.9686 21.5184 30.8333C21.5184 29.6981 20.6148 28.7778 19.5 28.7778ZM13.4449 30.8333C13.4449 27.4275 16.1558 24.6667 19.5 24.6667C22.8443 24.6667 25.5551 27.4275 25.5551 30.8333C25.5551 34.2392 22.8443 37 19.5 37C16.1558 37 13.4449 34.2392 13.4449 30.8333Z" fill="#4B64FF"/>
</svg>
