<svg width="51" height="55" viewBox="0 0 51 55" fill="none" xmlns="http://www.w3.org/2000/svg">
<g clip-path="url(#clip0_4097_38963)">
<path d="M44.8839 45.2433H6.11569C4.16388 45.2433 2.40343 44.21 1.40839 42.5261C0.41335 40.8422 0.41335 38.8138 1.40839 37.1299L20.8499 3.643C21.8067 1.95909 23.5289 0.925781 25.5189 0.925781C27.509 0.925781 29.2312 1.95909 30.188 3.643L49.5912 37.1299C50.5863 38.8138 50.5863 40.8422 49.5912 42.5261C48.6345 44.2483 46.874 45.2433 44.8839 45.2433ZM25.5189 1.57638C23.7968 1.57638 22.2659 2.45661 21.424 3.98744L2.02072 37.4743C1.14049 38.9286 1.14049 40.7273 2.02072 42.2199C2.86268 43.6742 4.39351 44.5927 6.11569 44.5927H44.8839C46.6061 44.5927 48.1369 43.7125 48.9789 42.2199C49.8209 40.7656 49.8209 38.9669 48.9789 37.4743L29.6139 3.94917C28.772 2.45661 27.2411 1.57638 25.5189 1.57638Z" fill="white"/>
<g opacity="0.1">
<path opacity="0.1" d="M25.6335 54.9261C23.72 54.9261 21.9978 53.931 21.0027 52.2471L1.86737 19.1812C0.872334 17.4973 0.872334 15.5072 1.86737 13.8616C2.86241 12.1777 4.58459 11.1826 6.49813 11.1826H44.8071C46.7207 11.1826 48.4428 12.1777 49.4379 13.8616C50.4329 15.5455 50.3946 17.5356 49.4379 19.1812L30.3025 52.2471C29.3075 53.931 27.5853 54.9261 25.6335 54.9261ZM6.49813 11.8332C4.81422 11.8332 3.28339 12.7134 2.44143 14.1677C1.59948 15.622 1.59948 17.3825 2.44143 18.875L21.5768 51.9409C22.4188 53.3952 23.9113 54.2755 25.6335 54.2755C27.3174 54.2755 28.81 53.3952 29.6902 51.9409L48.8256 18.875C49.6675 17.4207 49.6675 15.6603 48.8256 14.1677C47.9836 12.7134 46.491 11.8332 44.7689 11.8332C44.8071 11.8332 6.49813 11.8332 6.49813 11.8332Z" fill="white"/>
</g>
<g opacity="0.64">
<path opacity="0.64" d="M35.6606 47.7316H14.9561C10.0575 47.7316 5.69462 45.2057 3.28357 40.9959C0.910783 36.901 0.949053 32.0023 3.39838 27.9456L14.1525 9.72873C16.487 5.74858 20.6585 3.41406 25.2892 3.41406C29.92 3.41406 34.0915 5.74858 36.426 9.72873L47.1801 27.9456C49.5912 32.0023 49.6294 36.9392 47.2949 41.0342C44.8839 45.2057 40.5593 47.7316 35.6606 47.7316ZM25.2892 4.06466C20.8881 4.06466 16.9079 6.32264 14.6882 10.0732L3.93417 28.29C1.63793 32.1554 1.63793 36.7861 3.85763 40.6898C6.15387 44.6699 10.2871 47.081 14.9561 47.081H35.6606C40.3296 47.081 44.4629 44.7082 46.7591 40.6898C48.9788 36.7861 48.9405 32.1171 46.6443 28.29L35.8902 10.0732C33.6705 6.32264 29.7286 4.06466 25.2892 4.06466Z" fill="white"/>
</g>
<g opacity="0.21">
<path opacity="0.21" d="M25.2512 52.8965C20.7352 52.8965 16.6785 50.6003 14.4205 46.7732L3.93436 29.0539C1.59985 25.0737 1.56158 20.3282 3.81955 16.3097C6.11579 12.2148 10.4021 9.80371 15.186 9.80371H35.3164C40.1002 9.80371 44.31 12.253 46.6828 16.348C48.979 20.3282 48.9407 25.112 46.5679 29.0922L36.12 46.8115C33.8238 50.562 29.7671 52.8965 25.2512 52.8965ZM14.9563 46.3905C17.0995 50.0262 20.9648 52.2077 25.2512 52.2077C29.5375 52.2077 33.4028 50.0262 35.546 46.3905L45.9939 28.6712C48.2136 24.9206 48.2519 20.4047 46.1087 16.6159C43.889 12.7123 39.8706 10.416 35.3164 10.416H15.186C10.67 10.416 6.61331 12.7123 4.39361 16.6159C2.21218 20.4047 2.25045 24.9589 4.50842 28.7094L14.9563 46.3905Z" fill="white"/>
</g>
<g opacity="0.4">
<path opacity="0.4" d="M33.4418 50.6773H17.4447C14.6509 50.6773 12.0485 49.1847 10.6707 46.6971L2.55734 32.4604C1.21787 30.0877 1.21787 27.1408 2.55734 24.7297L10.6325 10.4165C12.0485 8.00544 14.6126 6.47461 17.4447 6.47461H33.4801C36.2739 6.47461 38.8763 7.96717 40.254 10.4548L48.3674 24.768C49.7069 27.1408 49.7069 30.0877 48.3674 32.4987L40.254 46.7354C38.838 49.1847 36.2356 50.6773 33.4418 50.6773ZM17.4447 7.16348C14.8805 7.16348 12.5077 8.54123 11.2448 10.7609L3.09313 25.0359C1.86847 27.2173 1.86847 29.8963 3.09313 32.0777L11.2065 46.391C12.5077 48.6107 14.8805 49.9884 17.4447 49.9884H33.4801C36.0442 49.9884 38.417 48.6107 39.68 46.391L47.7934 32.0777C49.018 29.8963 49.018 27.2173 47.7934 25.0359L39.68 10.7227C38.417 8.46469 36.0442 7.12521 33.4801 7.12521L17.4447 7.16348Z" fill="white"/>
</g>
<path d="M23.874 33.9157V37.4366H15.8754L13.7705 33.8775V20.8271H17.2914V33.8775H23.8357L23.874 33.9157Z" fill="white"/>
<path d="M37.268 20.8271V33.8392L35.1631 37.4366H34.1298H25.9399L23.8732 33.9157V33.8775H23.835V20.8271H27.3941V33.8775H33.7088V20.8271H37.268Z" fill="white"/>
</g>
<g clip-path="url(#clip1_4097_38963)">
<path d="M44.8839 45.2433H6.11569C4.16388 45.2433 2.40343 44.21 1.40839 42.5261C0.41335 40.8422 0.41335 38.8138 1.40839 37.1299L20.8499 3.643C21.8067 1.95909 23.5289 0.925781 25.5189 0.925781C27.509 0.925781 29.2312 1.95909 30.188 3.643L49.5912 37.1299C50.5863 38.8138 50.5863 40.8422 49.5912 42.5261C48.6345 44.2483 46.874 45.2433 44.8839 45.2433ZM25.5189 1.57638C23.7968 1.57638 22.2659 2.45661 21.424 3.98744L2.02072 37.4743C1.14049 38.9286 1.14049 40.7273 2.02072 42.2199C2.86268 43.6742 4.39351 44.5927 6.11569 44.5927H44.8839C46.6061 44.5927 48.1369 43.7125 48.9789 42.2199C49.8209 40.7656 49.8209 38.9669 48.9789 37.4743L29.6139 3.94917C28.772 2.45661 27.2411 1.57638 25.5189 1.57638Z" fill="white"/>
<g opacity="0.1">
<path opacity="0.1" d="M25.6335 54.9261C23.72 54.9261 21.9978 53.931 21.0027 52.2471L1.86737 19.1812C0.872334 17.4973 0.872334 15.5072 1.86737 13.8616C2.86241 12.1777 4.58459 11.1826 6.49813 11.1826H44.8071C46.7207 11.1826 48.4428 12.1777 49.4379 13.8616C50.4329 15.5455 50.3946 17.5356 49.4379 19.1812L30.3025 52.2471C29.3075 53.931 27.5853 54.9261 25.6335 54.9261ZM6.49813 11.8332C4.81422 11.8332 3.28339 12.7134 2.44143 14.1677C1.59948 15.622 1.59948 17.3825 2.44143 18.875L21.5768 51.9409C22.4188 53.3952 23.9113 54.2755 25.6335 54.2755C27.3174 54.2755 28.81 53.3952 29.6902 51.9409L48.8256 18.875C49.6675 17.4207 49.6675 15.6603 48.8256 14.1677C47.9836 12.7134 46.491 11.8332 44.7689 11.8332C44.8071 11.8332 6.49813 11.8332 6.49813 11.8332Z" fill="white"/>
</g>
<g opacity="0.64">
<path opacity="0.64" d="M35.6606 47.7316H14.9561C10.0575 47.7316 5.69462 45.2057 3.28357 40.9959C0.910783 36.901 0.949053 32.0023 3.39838 27.9456L14.1525 9.72873C16.487 5.74858 20.6585 3.41406 25.2892 3.41406C29.92 3.41406 34.0915 5.74858 36.426 9.72873L47.1801 27.9456C49.5912 32.0023 49.6294 36.9392 47.2949 41.0342C44.8839 45.2057 40.5593 47.7316 35.6606 47.7316ZM25.2892 4.06466C20.8881 4.06466 16.9079 6.32264 14.6882 10.0732L3.93417 28.29C1.63793 32.1554 1.63793 36.7861 3.85763 40.6898C6.15387 44.6699 10.2871 47.081 14.9561 47.081H35.6606C40.3296 47.081 44.4629 44.7082 46.7591 40.6898C48.9788 36.7861 48.9405 32.1171 46.6443 28.29L35.8902 10.0732C33.6705 6.32264 29.7286 4.06466 25.2892 4.06466Z" fill="white"/>
</g>
<g opacity="0.21">
<path opacity="0.21" d="M25.2512 52.8965C20.7352 52.8965 16.6785 50.6003 14.4205 46.7732L3.93436 29.0539C1.59985 25.0737 1.56158 20.3282 3.81955 16.3097C6.11579 12.2148 10.4021 9.80371 15.186 9.80371H35.3164C40.1002 9.80371 44.31 12.253 46.6828 16.348C48.979 20.3282 48.9407 25.112 46.5679 29.0922L36.12 46.8115C33.8238 50.562 29.7671 52.8965 25.2512 52.8965ZM14.9563 46.3905C17.0995 50.0262 20.9648 52.2077 25.2512 52.2077C29.5375 52.2077 33.4028 50.0262 35.546 46.3905L45.9939 28.6712C48.2136 24.9206 48.2519 20.4047 46.1087 16.6159C43.889 12.7123 39.8706 10.416 35.3164 10.416H15.186C10.67 10.416 6.61331 12.7123 4.39361 16.6159C2.21218 20.4047 2.25045 24.9589 4.50842 28.7094L14.9563 46.3905Z" fill="white"/>
</g>
<g opacity="0.4">
<path opacity="0.4" d="M33.4418 50.6773H17.4447C14.6509 50.6773 12.0485 49.1847 10.6707 46.6971L2.55734 32.4604C1.21787 30.0877 1.21787 27.1408 2.55734 24.7297L10.6325 10.4165C12.0485 8.00544 14.6126 6.47461 17.4447 6.47461H33.4801C36.2739 6.47461 38.8763 7.96717 40.254 10.4548L48.3674 24.768C49.7069 27.1408 49.7069 30.0877 48.3674 32.4987L40.254 46.7354C38.838 49.1847 36.2356 50.6773 33.4418 50.6773ZM17.4447 7.16348C14.8805 7.16348 12.5077 8.54123 11.2448 10.7609L3.09313 25.0359C1.86847 27.2173 1.86847 29.8963 3.09313 32.0777L11.2065 46.391C12.5077 48.6107 14.8805 49.9884 17.4447 49.9884H33.4801C36.0442 49.9884 38.417 48.6107 39.68 46.391L47.7934 32.0777C49.018 29.8963 49.018 27.2173 47.7934 25.0359L39.68 10.7227C38.417 8.46469 36.0442 7.12521 33.4801 7.12521L17.4447 7.16348Z" fill="white"/>
</g>
<path d="M23.874 33.9157V37.4366H15.8754L13.7705 33.8775V20.8271H17.2914V33.8775H23.8357L23.874 33.9157Z" fill="white"/>
<path d="M37.268 20.8271V33.8392L35.1631 37.4366H34.1298H25.9399L23.8732 33.9157V33.8775H23.835V20.8271H27.3941V33.8775H33.7088V20.8271H37.268Z" fill="white"/>
</g>
<g clip-path="url(#clip2_4097_38963)">
<path d="M44.8839 45.2433H6.11569C4.16388 45.2433 2.40343 44.21 1.40839 42.5261C0.41335 40.8422 0.41335 38.8138 1.40839 37.1299L20.8499 3.643C21.8067 1.95909 23.5289 0.925781 25.5189 0.925781C27.509 0.925781 29.2312 1.95909 30.188 3.643L49.5912 37.1299C50.5863 38.8138 50.5863 40.8422 49.5912 42.5261C48.6345 44.2483 46.874 45.2433 44.8839 45.2433ZM25.5189 1.57638C23.7968 1.57638 22.2659 2.45661 21.424 3.98744L2.02072 37.4743C1.14049 38.9286 1.14049 40.7273 2.02072 42.2199C2.86268 43.6742 4.39351 44.5927 6.11569 44.5927H44.8839C46.6061 44.5927 48.1369 43.7125 48.9789 42.2199C49.8209 40.7656 49.8209 38.9669 48.9789 37.4743L29.6139 3.94917C28.772 2.45661 27.2411 1.57638 25.5189 1.57638Z" fill="white"/>
<g opacity="0.1">
<path opacity="0.1" d="M25.6335 54.9261C23.72 54.9261 21.9978 53.931 21.0027 52.2471L1.86737 19.1812C0.872334 17.4973 0.872334 15.5072 1.86737 13.8616C2.86241 12.1777 4.58459 11.1826 6.49813 11.1826H44.8071C46.7207 11.1826 48.4428 12.1777 49.4379 13.8616C50.4329 15.5455 50.3946 17.5356 49.4379 19.1812L30.3025 52.2471C29.3075 53.931 27.5853 54.9261 25.6335 54.9261ZM6.49813 11.8332C4.81422 11.8332 3.28339 12.7134 2.44143 14.1677C1.59948 15.622 1.59948 17.3825 2.44143 18.875L21.5768 51.9409C22.4188 53.3952 23.9113 54.2755 25.6335 54.2755C27.3174 54.2755 28.81 53.3952 29.6902 51.9409L48.8256 18.875C49.6675 17.4207 49.6675 15.6603 48.8256 14.1677C47.9836 12.7134 46.491 11.8332 44.7689 11.8332C44.8071 11.8332 6.49813 11.8332 6.49813 11.8332Z" fill="white"/>
</g>
<g opacity="0.64">
<path opacity="0.64" d="M35.6606 47.7316H14.9561C10.0575 47.7316 5.69462 45.2057 3.28357 40.9959C0.910783 36.901 0.949053 32.0023 3.39838 27.9456L14.1525 9.72873C16.487 5.74858 20.6585 3.41406 25.2892 3.41406C29.92 3.41406 34.0915 5.74858 36.426 9.72873L47.1801 27.9456C49.5912 32.0023 49.6294 36.9392 47.2949 41.0342C44.8839 45.2057 40.5593 47.7316 35.6606 47.7316ZM25.2892 4.06466C20.8881 4.06466 16.9079 6.32264 14.6882 10.0732L3.93417 28.29C1.63793 32.1554 1.63793 36.7861 3.85763 40.6898C6.15387 44.6699 10.2871 47.081 14.9561 47.081H35.6606C40.3296 47.081 44.4629 44.7082 46.7591 40.6898C48.9788 36.7861 48.9405 32.1171 46.6443 28.29L35.8902 10.0732C33.6705 6.32264 29.7286 4.06466 25.2892 4.06466Z" fill="white"/>
</g>
<g opacity="0.21">
<path opacity="0.21" d="M25.2512 52.8965C20.7352 52.8965 16.6785 50.6003 14.4205 46.7732L3.93436 29.0539C1.59985 25.0737 1.56158 20.3282 3.81955 16.3097C6.11579 12.2148 10.4021 9.80371 15.186 9.80371H35.3164C40.1002 9.80371 44.31 12.253 46.6828 16.348C48.979 20.3282 48.9407 25.112 46.5679 29.0922L36.12 46.8115C33.8238 50.562 29.7671 52.8965 25.2512 52.8965ZM14.9563 46.3905C17.0995 50.0262 20.9648 52.2077 25.2512 52.2077C29.5375 52.2077 33.4028 50.0262 35.546 46.3905L45.9939 28.6712C48.2136 24.9206 48.2519 20.4047 46.1087 16.6159C43.889 12.7123 39.8706 10.416 35.3164 10.416H15.186C10.67 10.416 6.61331 12.7123 4.39361 16.6159C2.21218 20.4047 2.25045 24.9589 4.50842 28.7094L14.9563 46.3905Z" fill="white"/>
</g>
<g opacity="0.4">
<path opacity="0.4" d="M33.4418 50.6773H17.4447C14.6509 50.6773 12.0485 49.1847 10.6707 46.6971L2.55734 32.4604C1.21787 30.0877 1.21787 27.1408 2.55734 24.7297L10.6325 10.4165C12.0485 8.00544 14.6126 6.47461 17.4447 6.47461H33.4801C36.2739 6.47461 38.8763 7.96717 40.254 10.4548L48.3674 24.768C49.7069 27.1408 49.7069 30.0877 48.3674 32.4987L40.254 46.7354C38.838 49.1847 36.2356 50.6773 33.4418 50.6773ZM17.4447 7.16348C14.8805 7.16348 12.5077 8.54123 11.2448 10.7609L3.09313 25.0359C1.86847 27.2173 1.86847 29.8963 3.09313 32.0777L11.2065 46.391C12.5077 48.6107 14.8805 49.9884 17.4447 49.9884H33.4801C36.0442 49.9884 38.417 48.6107 39.68 46.391L47.7934 32.0777C49.018 29.8963 49.018 27.2173 47.7934 25.0359L39.68 10.7227C38.417 8.46469 36.0442 7.12521 33.4801 7.12521L17.4447 7.16348Z" fill="white"/>
</g>
<path d="M23.874 33.9157V37.4366H15.8754L13.7705 33.8775V20.8271H17.2914V33.8775H23.8357L23.874 33.9157Z" fill="white"/>
<path d="M37.268 20.8271V33.8392L35.1631 37.4366H34.1298H25.9399L23.8732 33.9157V33.8775H23.835V20.8271H27.3941V33.8775H33.7088V20.8271H37.268Z" fill="white"/>
</g>
<g clip-path="url(#clip3_4097_38963)">
<path d="M44.8839 45.2433H6.11569C4.16388 45.2433 2.40343 44.21 1.40839 42.5261C0.41335 40.8422 0.41335 38.8138 1.40839 37.1299L20.8499 3.643C21.8067 1.95909 23.5289 0.925781 25.5189 0.925781C27.509 0.925781 29.2312 1.95909 30.188 3.643L49.5912 37.1299C50.5863 38.8138 50.5863 40.8422 49.5912 42.5261C48.6345 44.2483 46.874 45.2433 44.8839 45.2433ZM25.5189 1.57638C23.7968 1.57638 22.2659 2.45661 21.424 3.98744L2.02072 37.4743C1.14049 38.9286 1.14049 40.7273 2.02072 42.2199C2.86268 43.6742 4.39351 44.5927 6.11569 44.5927H44.8839C46.6061 44.5927 48.1369 43.7125 48.9789 42.2199C49.8209 40.7656 49.8209 38.9669 48.9789 37.4743L29.6139 3.94917C28.772 2.45661 27.2411 1.57638 25.5189 1.57638Z" fill="white"/>
<g opacity="0.1">
<path opacity="0.1" d="M25.6335 54.9261C23.72 54.9261 21.9978 53.931 21.0027 52.2471L1.86737 19.1812C0.872334 17.4973 0.872334 15.5072 1.86737 13.8616C2.86241 12.1777 4.58459 11.1826 6.49813 11.1826H44.8071C46.7207 11.1826 48.4428 12.1777 49.4379 13.8616C50.4329 15.5455 50.3946 17.5356 49.4379 19.1812L30.3025 52.2471C29.3075 53.931 27.5853 54.9261 25.6335 54.9261ZM6.49813 11.8332C4.81422 11.8332 3.28339 12.7134 2.44143 14.1677C1.59948 15.622 1.59948 17.3825 2.44143 18.875L21.5768 51.9409C22.4188 53.3952 23.9113 54.2755 25.6335 54.2755C27.3174 54.2755 28.81 53.3952 29.6902 51.9409L48.8256 18.875C49.6675 17.4207 49.6675 15.6603 48.8256 14.1677C47.9836 12.7134 46.491 11.8332 44.7689 11.8332C44.8071 11.8332 6.49813 11.8332 6.49813 11.8332Z" fill="white"/>
</g>
<g opacity="0.64">
<path opacity="0.64" d="M35.6606 47.7316H14.9561C10.0575 47.7316 5.69462 45.2057 3.28357 40.9959C0.910783 36.901 0.949053 32.0023 3.39838 27.9456L14.1525 9.72873C16.487 5.74858 20.6585 3.41406 25.2892 3.41406C29.92 3.41406 34.0915 5.74858 36.426 9.72873L47.1801 27.9456C49.5912 32.0023 49.6294 36.9392 47.2949 41.0342C44.8839 45.2057 40.5593 47.7316 35.6606 47.7316ZM25.2892 4.06466C20.8881 4.06466 16.9079 6.32264 14.6882 10.0732L3.93417 28.29C1.63793 32.1554 1.63793 36.7861 3.85763 40.6898C6.15387 44.6699 10.2871 47.081 14.9561 47.081H35.6606C40.3296 47.081 44.4629 44.7082 46.7591 40.6898C48.9788 36.7861 48.9405 32.1171 46.6443 28.29L35.8902 10.0732C33.6705 6.32264 29.7286 4.06466 25.2892 4.06466Z" fill="white"/>
</g>
<g opacity="0.21">
<path opacity="0.21" d="M25.2512 52.8965C20.7352 52.8965 16.6785 50.6003 14.4205 46.7732L3.93436 29.0539C1.59985 25.0737 1.56158 20.3282 3.81955 16.3097C6.11579 12.2148 10.4021 9.80371 15.186 9.80371H35.3164C40.1002 9.80371 44.31 12.253 46.6828 16.348C48.979 20.3282 48.9407 25.112 46.5679 29.0922L36.12 46.8115C33.8238 50.562 29.7671 52.8965 25.2512 52.8965ZM14.9563 46.3905C17.0995 50.0262 20.9648 52.2077 25.2512 52.2077C29.5375 52.2077 33.4028 50.0262 35.546 46.3905L45.9939 28.6712C48.2136 24.9206 48.2519 20.4047 46.1087 16.6159C43.889 12.7123 39.8706 10.416 35.3164 10.416H15.186C10.67 10.416 6.61331 12.7123 4.39361 16.6159C2.21218 20.4047 2.25045 24.9589 4.50842 28.7094L14.9563 46.3905Z" fill="white"/>
</g>
<g opacity="0.4">
<path opacity="0.4" d="M33.4418 50.6773H17.4447C14.6509 50.6773 12.0485 49.1847 10.6707 46.6971L2.55734 32.4604C1.21787 30.0877 1.21787 27.1408 2.55734 24.7297L10.6325 10.4165C12.0485 8.00544 14.6126 6.47461 17.4447 6.47461H33.4801C36.2739 6.47461 38.8763 7.96717 40.254 10.4548L48.3674 24.768C49.7069 27.1408 49.7069 30.0877 48.3674 32.4987L40.254 46.7354C38.838 49.1847 36.2356 50.6773 33.4418 50.6773ZM17.4447 7.16348C14.8805 7.16348 12.5077 8.54123 11.2448 10.7609L3.09313 25.0359C1.86847 27.2173 1.86847 29.8963 3.09313 32.0777L11.2065 46.391C12.5077 48.6107 14.8805 49.9884 17.4447 49.9884H33.4801C36.0442 49.9884 38.417 48.6107 39.68 46.391L47.7934 32.0777C49.018 29.8963 49.018 27.2173 47.7934 25.0359L39.68 10.7227C38.417 8.46469 36.0442 7.12521 33.4801 7.12521L17.4447 7.16348Z" fill="white"/>
</g>
<path d="M23.874 33.9157V37.4366H15.8754L13.7705 33.8775V20.8271H17.2914V33.8775H23.8357L23.874 33.9157Z" fill="white"/>
<path d="M37.268 20.8271V33.8392L35.1631 37.4366H34.1298H25.9399L23.8732 33.9157V33.8775H23.835V20.8271H27.3941V33.8775H33.7088V20.8271H37.268Z" fill="white"/>
</g>
<defs>
<clipPath id="clip0_4097_38963">
<rect width="49.6371" height="54" fill="white" transform="translate(0.681641 0.926758)"/>
</clipPath>
<clipPath id="clip1_4097_38963">
<rect width="49.6371" height="54" fill="white" transform="translate(0.681641 0.926758)"/>
</clipPath>
<clipPath id="clip2_4097_38963">
<rect width="49.6371" height="54" fill="white" transform="translate(0.681641 0.926758)"/>
</clipPath>
<clipPath id="clip3_4097_38963">
<rect width="49.6371" height="54" fill="white" transform="translate(0.681641 0.926758)"/>
</clipPath>
</defs>
</svg>
