<svg width="18" height="18" viewBox="0 0 18 18" fill="none" xmlns="http://www.w3.org/2000/svg">
<path d="M17.487 14.1402L13.422 10.4442C13.2299 10.2696 12.9774 10.1764 12.7178 10.1845C12.4583 10.1925 12.212 10.3011 12.031 10.4872L9.63804 12.9482C9.06204 12.8382 7.90404 12.4772 6.71204 11.2882C5.52004 10.0952 5.15904 8.93424 5.05204 8.36224L7.51104 5.96824C7.69745 5.78737 7.80617 5.54106 7.8142 5.28145C7.82223 5.02183 7.72892 4.76928 7.55404 4.57724L3.85904 0.513239C3.68408 0.320596 3.44092 0.203743 3.18119 0.187499C2.92146 0.171254 2.66564 0.256897 2.46804 0.426239L0.298038 2.28724C0.125149 2.46075 0.0219574 2.69169 0.00803782 2.93624C-0.00696218 3.18624 -0.292962 9.10824 4.29904 13.7022C8.30504 17.7072 13.323 18.0002 14.705 18.0002C14.907 18.0002 15.031 17.9942 15.064 17.9922C15.3086 17.9786 15.5394 17.8749 15.712 17.7012L17.572 15.5302C17.7421 15.3333 17.8283 15.0776 17.8124 14.8179C17.7966 14.5582 17.6798 14.315 17.487 14.1402Z" fill="#FEDB31"/>
</svg>
