<svg width="241" height="241" viewBox="0 0 241 241" fill="none" xmlns="http://www.w3.org/2000/svg">
<g opacity="0.34">
<path d="M8.25 75.5166C8.25 75.5166 8.6914 79.6366 10.4107 81.3559C12.13 83.0752 16.25 83.5166 16.25 83.5166C16.25 83.5166 12.13 83.958 10.4107 85.6773C8.6914 87.3966 8.25 91.5166 8.25 91.5166C8.25 91.5166 7.8086 87.3966 6.08928 85.6773C4.36996 83.958 0.25 83.5166 0.25 83.5166C0.25 83.5166 4.36996 83.0752 6.08928 81.3559C7.8086 79.6366 8.25 75.5166 8.25 75.5166Z" fill="#FFE934"/>
<path d="M232.25 203.517C232.25 203.517 232.691 207.637 234.411 209.356C236.13 211.075 240.25 211.517 240.25 211.517C240.25 211.517 236.13 211.958 234.411 213.677C232.691 215.397 232.25 219.517 232.25 219.517C232.25 219.517 231.809 215.397 230.089 213.677C228.37 211.958 224.25 211.517 224.25 211.517C224.25 211.517 228.37 211.075 230.089 209.356C231.809 207.637 232.25 203.517 232.25 203.517Z" fill="#FFE934"/>
<path d="M8.25 176.517C8.25 176.517 8.4707 178.577 9.33036 179.436C10.19 180.296 12.25 180.517 12.25 180.517C12.25 180.517 10.19 180.737 9.33036 181.597C8.4707 182.457 8.25 184.517 8.25 184.517C8.25 184.517 8.0293 182.457 7.16964 181.597C6.30998 180.737 4.25 180.517 4.25 180.517C4.25 180.517 6.30998 180.296 7.16964 179.436C8.0293 178.577 8.25 176.517 8.25 176.517Z" fill="#FFE934"/>
<path d="M232.25 79.5166C232.25 79.5166 232.471 81.5766 233.33 82.4362C234.19 83.2959 236.25 83.5166 236.25 83.5166C236.25 83.5166 234.19 83.7373 233.33 84.597C232.471 85.4566 232.25 87.5166 232.25 87.5166C232.25 87.5166 232.029 85.4566 231.17 84.597C230.31 83.7373 228.25 83.5166 228.25 83.5166C228.25 83.5166 230.31 83.2959 231.17 82.4362C232.029 81.5766 232.25 79.5166 232.25 79.5166Z" fill="#FFE934"/>
<path d="M192.951 8.5166C192.951 8.5166 188.831 8.958 187.111 10.6773C185.392 12.3966 184.951 16.5166 184.951 16.5166C184.951 16.5166 184.509 12.3966 182.79 10.6773C181.071 8.958 176.951 8.5166 176.951 8.5166C176.951 8.5166 181.071 8.0752 182.79 6.35588C184.509 4.63656 184.951 0.516601 184.951 0.516601C184.951 0.516601 185.392 4.63656 187.111 6.35588C188.831 8.0752 192.951 8.5166 192.951 8.5166Z" fill="#FFE934"/>
<path d="M64.9507 232.517C64.9507 232.517 60.8307 232.958 59.1114 234.677C57.3921 236.397 56.9507 240.517 56.9507 240.517C56.9507 240.517 56.5093 236.397 54.79 234.677C53.0706 232.958 48.9507 232.517 48.9507 232.517C48.9507 232.517 53.0706 232.075 54.79 230.356C56.5093 228.637 56.9507 224.517 56.9507 224.517C56.9507 224.517 57.3921 228.637 59.1114 230.356C60.8307 232.075 64.9507 232.517 64.9507 232.517Z" fill="#FFE934"/>
<path d="M91.9507 8.5166C91.9507 8.5166 89.8907 8.7373 89.031 9.59696C88.1714 10.4566 87.9507 12.5166 87.9507 12.5166C87.9507 12.5166 87.73 10.4566 86.8703 9.59696C86.0107 8.7373 83.9507 8.5166 83.9507 8.5166C83.9507 8.5166 86.0107 8.2959 86.8703 7.43624C87.73 6.57658 87.9507 4.5166 87.9507 4.5166C87.9507 4.5166 88.1714 6.57658 89.031 7.43624C89.8907 8.2959 91.9507 8.5166 91.9507 8.5166Z" fill="#FFE934"/>
<path d="M188.951 232.517C188.951 232.517 186.891 232.737 186.031 233.597C185.171 234.457 184.951 236.517 184.951 236.517C184.951 236.517 184.73 234.457 183.87 233.597C183.011 232.737 180.951 232.517 180.951 232.517C180.951 232.517 183.011 232.296 183.87 231.436C184.73 230.577 184.951 228.517 184.951 228.517C184.951 228.517 185.171 230.577 186.031 231.436C186.891 232.296 188.951 232.517 188.951 232.517Z" fill="#FFE934"/>
</g>
</svg>
