<svg width="25" height="25" viewBox="0 0 25 25" fill="none" xmlns="http://www.w3.org/2000/svg">
<path d="M17.1721 4.70844L17.2621 4.76043C18.0403 5.20965 18.6891 5.58424 19.1642 5.95088C19.6657 6.33788 20.0638 6.78207 20.2305 7.40425C20.3972 8.02644 20.2746 8.61014 20.0338 9.19602C19.8666 9.60269 19.6209 10.0597 19.3247 10.5809L18.6894 10.2033L18.6812 10.1985L11.7559 6.20021L11.1083 5.8185C11.4084 5.30741 11.6788 4.87088 11.9449 4.52594C12.3319 4.02445 12.7761 3.62642 13.3983 3.45971C14.0205 3.293 14.6042 3.4156 15.1901 3.6564C15.7452 3.88454 16.394 4.25918 17.1721 4.70844Z" fill="#999999"/>
<path d="M10.3569 7.11677L6.87888 13.1407C6.5811 13.6555 6.34564 14.0625 6.2584 14.5255C6.17117 14.9886 6.24235 15.4534 6.33238 16.0413L6.35664 16.2002C6.52283 17.2915 6.65981 18.1911 6.86641 18.8732C7.08248 19.5867 7.41463 20.2042 8.0679 20.5813C8.72118 20.9585 9.42204 20.9374 10.1479 20.7678C10.842 20.6057 11.6895 20.2745 12.7178 19.8728L12.8675 19.8143C13.4216 19.5983 13.8598 19.4276 14.2171 19.1205C14.5745 18.8135 14.8093 18.406 15.1062 17.8907L18.576 11.8809L17.9271 11.4952L10.9972 7.49421L10.3569 7.11677Z" fill="#999999"/>
</svg>
