<svg width="24" height="24" viewBox="0 0 24 24" fill="none" xmlns="http://www.w3.org/2000/svg">
<path fill-rule="evenodd" clip-rule="evenodd" d="M17.2 5.12758L18.766 6.37458C18.9172 6.51691 19.0025 6.71571 19.0013 6.92339C19.0002 7.13106 18.9128 7.32892 18.76 7.46958L17.57 8.89358L13.521 13.7226C13.4501 13.8037 13.3558 13.8607 13.251 13.8856L11.151 14.3616C10.8755 14.3754 10.6356 14.1751 10.6 13.9016V11.7436C10.6071 11.6395 10.649 11.5409 10.719 11.4636L14.693 6.97058L16.057 5.34158C16.3268 4.98786 16.8204 4.89545 17.2 5.12758Z" stroke="#C7C7C7" stroke-linecap="round" stroke-linejoin="round"/>
<path d="M11.533 7.36859C11.8092 7.36859 12.033 7.14473 12.033 6.86859C12.033 6.59245 11.8092 6.36859 11.533 6.36859V7.36859ZM8.73301 6.86859L8.73301 6.36859L8.73181 6.36859L8.73301 6.86859ZM5.00001 10.6186L5.50001 10.6186L5.50001 10.6175L5.00001 10.6186ZM5.00001 16.2436L5.50001 16.2447V16.2436H5.00001ZM8.73301 19.9936L8.73181 20.4936H8.73301V19.9936ZM14.333 19.9936L14.333 20.4936L14.3342 20.4936L14.333 19.9936ZM18.066 16.2436L17.566 16.2436L17.566 16.2447L18.066 16.2436ZM18.566 12.4936C18.566 12.2174 18.3422 11.9936 18.066 11.9936C17.7899 11.9936 17.566 12.2174 17.566 12.4936H18.566ZM15.1552 6.7798C15.0498 6.52455 14.7575 6.40305 14.5022 6.50842C14.247 6.6138 14.1255 6.90614 14.2308 7.16138L15.1552 6.7798ZM17.6779 9.3778C17.9476 9.3182 18.1178 9.0513 18.0582 8.78167C17.9986 8.51203 17.7317 8.34177 17.4621 8.40138L17.6779 9.3778ZM7.80001 16.6816C7.52387 16.6816 7.30001 16.9054 7.30001 17.1816C7.30001 17.4577 7.52387 17.6816 7.80001 17.6816V16.6816ZM15.267 17.6816C15.5432 17.6816 15.767 17.4577 15.767 17.1816C15.767 16.9054 15.5432 16.6816 15.267 16.6816V17.6816ZM11.533 6.36859H8.73301V7.36859H11.533V6.36859ZM8.73181 6.36859C6.38946 6.37422 4.495 8.27731 4.50001 10.6197L5.50001 10.6175C5.49618 8.82735 6.94404 7.37289 8.73421 7.36859L8.73181 6.36859ZM4.50001 10.6186V16.2436H5.50001V10.6186H4.50001ZM4.50001 16.2425C4.495 18.5849 6.38946 20.488 8.73181 20.4936L8.73421 19.4936C6.94404 19.4893 5.49618 18.0348 5.50001 16.2447L4.50001 16.2425ZM8.73301 20.4936H14.333V19.4936H8.73301V20.4936ZM14.3342 20.4936C16.6766 20.488 18.571 18.5849 18.566 16.2425L17.566 16.2447C17.5698 18.0348 16.122 19.4893 14.3318 19.4936L14.3342 20.4936ZM18.566 16.2436V12.4936H17.566V16.2436H18.566ZM14.2308 7.16138C14.4144 7.60614 14.7919 8.24034 15.3507 8.72654C15.9186 9.22065 16.7138 9.59094 17.6779 9.3778L17.4621 8.40138C16.8973 8.52624 16.415 8.32703 16.0071 7.97214C15.5901 7.60934 15.2936 7.11504 15.1552 6.7798L14.2308 7.16138ZM7.80001 17.6816H15.267V16.6816H7.80001V17.6816Z" fill="#C7C7C7"/>
</svg>
