<?xml version="1.0" encoding="utf-8"?>
<!-- Generator: Adobe Illustrator 22.1.0, SVG Export Plug-In . SVG Version: 6.00 Build 0)  -->
<svg version="1.1" id="Layer_1" xmlns="http://www.w3.org/2000/svg" xmlns:xlink="http://www.w3.org/1999/xlink" x="0px" y="0px"
	 viewBox="0 0 461 506.5" style="enable-background:new 0 0 461 506.5;" xml:space="preserve">
<style type="text/css">
	.st0{fill:#FFFFFF;}
	.st1{opacity:0.1;}
	.st2{opacity:0.64;}
	.st3{opacity:0.21;}
	.st4{opacity:0.4;}
</style>
<g>
	<g>
		<path class="st0" d="M410,413.5H51c-18.1,0-34.3-9.4-43.4-25.1c-9.1-15.7-9-34.4,0-50.1L187.2,28.2c9.1-15.7,25.3-25,43.3-25
			s34.3,9.3,43.3,25l179.5,310.1c9.1,15.7,9.1,34.4,0,50.1C444.4,404.1,428.2,413.5,410,413.5z M230.5,9.4c-15.9,0-30.1,8.2-38,21.9
			L12.9,341.4c-8,13.8-8,30.2,0,43.9c7.9,13.8,22.2,22,38.1,22H410c15.9,0,30.1-8.2,38.1-22c7.9-13.8,7.9-30.2,0-43.9L268.5,31.3
			C260.6,17.6,246.4,9.4,230.5,9.4z"/>
	</g>
	<g class="st1">
		<path class="st0" d="M231.7,503.2c-17.8,0-33.8-9.2-42.8-24.7L11.7,172.5c-9-15.5-9-34,0-49.5c8.9-15.5,24.9-24.7,42.8-24.7h354.4
			c17.9,0,33.9,9.3,42.8,24.7c8.9,15.5,8.9,34,0,49.5L274.5,478.6C265.6,494,249.6,503.2,231.7,503.2z M54.5,104.4
			c-15.7,0-29.7,8.1-37.6,21.7c-7.8,13.6-7.8,29.8,0,43.4l177.2,306.1c7.8,13.5,21.9,21.6,37.5,21.6s29.7-8.1,37.5-21.6l177.2-306.1
			c7.9-13.6,7.9-29.8,0-43.4c-7.8-13.6-21.9-21.7-37.6-21.7H54.5z"/>
	</g>
	<g class="st2">
		<path class="st0" d="M324.3,436.6H132.8c-45.4,0-85.8-23.3-108.1-62.3c-21.7-38.1-21.3-83.3,1-121l99.6-168.5
			c21.6-36.6,60.3-58.5,103.3-58.5s81.6,21.9,103.3,58.5l99.6,168.4c22.3,37.7,22.7,83,1,121.1C410.2,413.3,369.8,436.6,324.3,436.6
			z M228.6,32.5c-40.8,0-77.5,20.7-98,55.4L31,256.4c-21.2,35.8-21.5,78.8-0.9,114.9c21.1,37.1,59.5,59.2,102.7,59.2h191.5
			c43.2,0,81.6-22.1,102.8-59.2c20.6-36.1,20.3-79.1-0.9-114.9L326.6,87.9C306,53.2,269.4,32.5,228.6,32.5z"/>
	</g>
	<g class="st3">
		<path class="st0" d="M228.1,484.3c-41.9,0-79.4-21.3-100.5-56.9L30.7,263.6C9,226.9,8.6,182.9,29.8,145.9
			c21.6-37.9,61-60.6,105.2-60.6h186.3c44.2,0,83.5,22.6,105.1,60.6c21.1,37,20.8,81-0.9,117.7l-96.9,163.9
			C307.5,463.1,269.9,484.3,228.1,484.3z M132.7,424.4c20,33.8,55.6,53.9,95.3,53.9c39.7,0,75.4-20.2,95.3-53.9l96.9-163.9
			c20.6-34.8,20.9-76.6,0.9-111.7c-20.6-36-57.9-57.6-99.9-57.6H134.9c-42,0-79.4,21.5-100,57.6c-20,35.1-19.7,76.9,0.9,111.7
			L132.7,424.4z"/>
	</g>
	<g class="st4">
		<path class="st0" d="M304,463.9H155.8c-25.9,0-50-14-62.8-36.6L17.8,295c-12.5-22-12.5-49.3,0-71.3L93,91.3
			c12.8-22.6,36.9-36.6,62.8-36.6H304c25.9,0,50,14,62.8,36.6l75.1,132.3c12.5,22,12.5,49.3,0,71.3l-75.1,132.3
			C354,449.8,329.9,463.9,304,463.9z M155.8,60.9c-23.7,0-45.7,12.8-57.4,33.4L23.2,226.7c-11.4,20.1-11.4,45.1,0,65.2l75.1,132.3
			c11.7,20.6,33.7,33.4,57.4,33.4H304c23.7,0,45.7-12.8,57.4-33.4l75.1-132.3c11.4-20.1,11.4-45.1,0-65.2L361.4,94.4
			c-11.7-20.6-33.7-33.4-57.4-33.4H155.8z"/>
	</g>
	<g>
		<polygon class="st0" points="215.1,308.6 215.1,341.3 141.2,341.3 121.6,308.3 121.6,187.2 154.6,187.2 154.6,308.3 214.9,308.3 
					"/>
		<polygon class="st0" points="339.4,187.2 339.3,308.2 319.7,341.3 310.5,341.3 310.5,341.3 234.5,341.3 215.1,308.6 215.1,308.3 
			214.9,308.3 214.9,187.2 247.9,187.2 247.9,308.3 306.4,308.3 306.4,187.2 		"/>
	</g>
</g>
</svg>
