<svg width="38" height="51" viewBox="0 0 38 51" fill="none" xmlns="http://www.w3.org/2000/svg">
<g clip-path="url(#clip0_5080_50678)">
<path d="M37.0106 4.53723L36.861 4.40519H36.8522C36.3504 4.00906 35.7342 3.78899 35.1004 3.78899H23.0406C22.8645 3.13758 22.53 2.53019 22.0634 2.02843C21.2712 1.18336 20.162 0.708008 19.0089 0.708008H18.9737C18.956 0.708008 18.9296 0.708008 18.9032 0.708008C17.9525 0.708008 17.0282 1.04251 16.2888 1.6323C15.6022 2.18688 15.118 2.94392 14.8891 3.78899H2.82048C2.11626 3.78899 1.42964 4.07068 0.936681 4.57244C0.443723 5.0742 0.162033 5.75202 0.162033 6.45624V48.0495C0.162033 48.7537 0.443723 49.4403 0.945484 49.9333C1.44724 50.4263 2.12506 50.7168 2.82929 50.7168H35.1972C35.9015 50.7168 36.5617 50.4439 37.0634 49.9421C37.5652 49.4403 37.8469 48.7537 37.8381 48.0495V6.45624C37.8381 5.72561 37.5388 5.03019 37.0106 4.53723ZM11.6497 6.03371H15.8663C16.1656 6.03371 16.4472 5.91927 16.6585 5.708C16.8698 5.49673 16.9842 5.21504 16.9842 4.91575V4.90695C16.9754 4.38758 17.1867 3.87702 17.5564 3.5073C17.9173 3.14639 18.4015 2.95272 18.912 2.95272C18.9296 2.95272 18.9472 2.95272 18.9649 2.95272H18.9825C19.0001 2.95272 19.0177 2.95272 19.0353 2.95272C19.5634 2.95272 20.074 3.17279 20.4261 3.56012C20.7606 3.92984 20.9455 4.41399 20.9455 4.91575C20.9455 5.21504 21.0599 5.49673 21.2712 5.708C21.4825 5.91927 21.7641 6.03371 22.0634 6.03371H26.3328V9.95095H11.6321V6.03371H11.6497ZM35.5934 48.0495C35.5934 48.1551 35.5494 48.2696 35.4701 48.3488C35.3909 48.428 35.2853 48.472 35.1708 48.472H2.82048C2.59161 48.472 2.39795 48.2872 2.39795 48.0495V6.45624C2.39795 6.22737 2.58281 6.03371 2.82048 6.03371H9.40499V11.0689C9.40499 11.3682 9.51943 11.6499 9.73069 11.8612C9.94196 12.0724 10.2237 12.1869 10.5229 12.1869H27.4684C27.7677 12.1869 28.0494 12.0724 28.2606 11.8612C28.4719 11.6499 28.5863 11.3682 28.5863 11.0689V6.03371H35.0916C35.2325 6.03371 35.3645 6.08652 35.4701 6.17455C35.5406 6.24497 35.5846 6.3418 35.5846 6.44744V48.0495H35.5934Z" fill="#4B64FF"/>
<path d="M33.2166 9.53742V44.9688C33.2166 45.2681 33.1022 45.5497 32.8909 45.761C32.6796 45.9723 32.3979 46.0867 32.0986 46.0867H5.90147C5.60217 46.0867 5.32048 45.9723 5.10921 45.761C4.89794 45.5497 4.78351 45.2681 4.78351 44.9688V9.53742C4.78351 8.92122 5.28527 8.41066 5.91027 8.41066H7.45076C8.06696 8.41066 8.57752 8.91242 8.57752 9.53742C8.57752 10.1624 8.06696 10.6554 7.45076 10.6554H7.02823V43.842H30.9719V10.6554H30.5494C29.9332 10.6554 29.4226 10.1536 29.4226 9.52862C29.4226 8.90362 29.9244 8.40186 30.5494 8.40186H32.0898C32.3891 8.40186 32.6708 8.51629 32.8821 8.72756C33.1022 8.95643 33.2166 9.23812 33.2166 9.53742Z" fill="#4B64FF"/>
<path d="M28.5951 17.2396C28.5951 17.8558 28.0934 18.3663 27.4684 18.3663H16.6937C16.0775 18.3663 15.567 17.8646 15.567 17.2396C15.567 16.6146 16.0687 16.1128 16.6937 16.1128H27.4772C28.0934 16.1128 28.5951 16.6146 28.5951 17.2396Z" fill="#4B64FF"/>
<path d="M26.6145 23.4017C26.6145 24.0179 26.1127 24.5284 25.4877 24.5284H16.6849C16.0687 24.5284 15.5582 24.0267 15.5582 23.4017C15.5582 22.7767 16.0599 22.2749 16.6849 22.2749H25.4877C26.1127 22.2749 26.6145 22.7767 26.6145 23.4017Z" fill="#4B64FF"/>
<path d="M13.9473 15.3557C13.4543 14.8628 12.7677 14.5723 12.0634 14.5723C11.3592 14.5723 10.6726 14.854 10.1796 15.3557C9.68669 15.8575 9.39619 16.5353 9.39619 17.2395C9.39619 17.9437 9.67788 18.6304 10.1796 19.1233C10.6814 19.6163 11.3592 19.9068 12.0634 19.9068C12.7677 19.9068 13.4543 19.6251 13.9473 19.1233C14.4402 18.6216 14.7307 17.9437 14.7307 17.2395C14.7307 16.5353 14.449 15.8487 13.9473 15.3557ZM12.486 17.6533C12.3715 17.7677 12.2219 17.8293 12.0634 17.8293C11.9842 17.8293 11.905 17.8117 11.8346 17.7853C11.6145 17.6973 11.4649 17.4772 11.4649 17.2395C11.4649 16.9138 11.7289 16.6409 12.0634 16.6409C12.3011 16.6409 12.5212 16.7818 12.6092 17.0106C12.7061 17.2307 12.662 17.486 12.486 17.6533Z" fill="#4B64FF"/>
<path d="M13.9473 21.5178C13.4543 21.0249 12.7677 20.7344 12.0634 20.7344C11.3592 20.7344 10.6726 21.0161 10.1796 21.5178C9.68669 22.0196 9.39619 22.6974 9.39619 23.4016C9.39619 24.1059 9.67788 24.7925 10.1796 25.2854C10.6814 25.7784 11.3592 26.0689 12.0634 26.0689C12.7677 26.0689 13.4543 25.7872 13.9473 25.2854C14.4402 24.7837 14.7307 24.1059 14.7307 23.4016C14.7307 22.6974 14.449 22.0108 13.9473 21.5178ZM12.0634 23.9914C11.9842 23.9914 11.905 23.9738 11.8346 23.9474C11.6145 23.8594 11.4649 23.6393 11.4649 23.4016C11.4649 23.0759 11.7289 22.803 12.0634 22.803C12.3011 22.803 12.5212 22.9439 12.6092 23.1728C12.7061 23.3928 12.6532 23.6481 12.4772 23.8242C12.3803 23.9298 12.2219 23.9914 12.0634 23.9914Z" fill="#4B64FF"/>
</g>
<defs>
<clipPath id="clip0_5080_50678">
<rect width="37.6761" height="50" fill="white" transform="translate(0.162033 0.708008)"/>
</clipPath>
</defs>
</svg>
