<svg width="28" height="28" viewBox="0 0 28 28" fill="none" xmlns="http://www.w3.org/2000/svg">
<g filter="url(#filter0_d_6035_17657)">
<path d="M22 4H6C4.897 4 4 4.897 4 6V18C4 19.103 4.897 20 6 20H22C23.103 20 24 19.103 24 18V6C24 4.897 23.103 4 22 4ZM10.715 8C11.866 8 12.715 8.849 12.715 10C12.715 11.151 11.866 12 10.715 12C9.564 12 8.715 11.151 8.715 10C8.715 8.849 9.563 8 10.715 8ZM14.43 16H7V15.535C7 14.162 8.676 12.75 10.715 12.75C12.754 12.75 14.43 14.162 14.43 15.535V16ZM21 15H17V13H21V15ZM21 11H16V9H21V11Z" fill="black"/>
</g>
<defs>
<filter id="filter0_d_6035_17657" x="-2" y="0" width="32" height="32" filterUnits="userSpaceOnUse" color-interpolation-filters="sRGB">
<feFlood flood-opacity="0" result="BackgroundImageFix"/>
<feColorMatrix in="SourceAlpha" type="matrix" values="0 0 0 0 0 0 0 0 0 0 0 0 0 0 0 0 0 0 127 0" result="hardAlpha"/>
<feOffset dy="4"/>
<feGaussianBlur stdDeviation="2"/>
<feComposite in2="hardAlpha" operator="out"/>
<feColorMatrix type="matrix" values="0 0 0 0 0 0 0 0 0 0 0 0 0 0 0 0 0 0 0.25 0"/>
<feBlend mode="normal" in2="BackgroundImageFix" result="effect1_dropShadow_6035_17657"/>
<feBlend mode="normal" in="SourceGraphic" in2="effect1_dropShadow_6035_17657" result="shape"/>
</filter>
</defs>
</svg>
